<svg width="197" height="66" viewBox="0 0 197 66" fill="none" xmlns="http://www.w3.org/2000/svg">
<path d="M63 24H45V42H63V24Z" fill="black"/>
<path fill-rule="evenodd" clip-rule="evenodd" d="M31.5 66C58.4996 66 63 48 63 48H0C0 48 4.50036 66 31.5 66Z" fill="black"/>
<path d="M39 0H21V18H39V0Z" fill="black"/>
<path d="M88.5 25.1781V30H67.5V0H72.5378V25.1781H88.5Z" fill="black"/>
<path d="M110.562 30L108.867 24.6005H98.1327L96.4381 30H91.5L100.915 0H106.084L115.5 30H110.562ZM107.36 19.7786L103.489 7.50031L99.6386 19.7786H107.36Z" fill="black"/>
<path d="M83.8763 66V53.4216H72.1235V66H67.4999V36H72.1235V48.5997H83.8763V36H88.4999V66H83.8763Z" fill="black"/>
<path d="M112.5 66H97.4898C96.8613 66 96.2592 65.7501 95.8152 65.3056L92.1937 61.6802C91.7496 61.2357 91.5 60.6329 91.5 60.0038V59.0745C91.5 58.4454 91.7496 57.8426 92.1937 57.3981L95.8152 53.7727C96.2592 53.3282 96.8613 53.0783 97.4898 53.0783H107.683V52.0071L105.499 49.8221H93V45H106.511C107.137 45 107.738 45.2486 108.182 45.6907L111.801 49.2984C112.248 49.743 112.499 50.3483 112.499 50.9787L112.5 66ZM96.8726 59.5504L98.4996 61.1792H107.683V57.9004H98.4996L96.8726 59.5504Z" fill="black"/>
<path d="M122.393 49.8228L120.243 52.0075V58.9937L122.393 61.1785H133.5V66H122.097C121.031 66 120.009 65.5693 119.256 64.8034L116.677 62.1817C115.924 61.4158 115.5 60.3774 115.5 59.2938V51.6899C115.5 50.6038 115.926 49.5629 116.683 48.7957L119.257 46.1903C120.01 45.4282 121.029 45 122.092 45H133.5V49.8215L122.393 49.8228Z" fill="black"/>
<path d="M144.872 53.1792L151.103 45H157.103L149.089 55.5814L157.205 66H151.135L144.872 57.9624H141.293V66H136.5V36H141.293V53.1792H144.872Z" fill="black"/>
<path d="M178.5 57.9009H162.322V58.9933L164.507 61.1782H177V66H164.493C163.226 66 162.01 65.4965 161.115 64.6012L158.899 62.3849C158.004 61.4896 157.5 60.2741 157.5 59.0071V51.9778C157.5 50.7071 158.006 49.4891 158.906 48.5925L161.116 46.3913C162.012 45.4998 163.223 45 164.487 45H171.528C172.795 45 174.01 45.5035 174.906 46.3988L177.101 48.5938C177.996 49.4891 178.5 50.7046 178.5 51.9715V57.9009ZM162.322 52.008V53.079H173.678V52.008L171.493 49.8231H164.508L162.322 52.008Z" fill="black"/>
<path d="M141 12.5998L138.647 15L141 17.4215V21.3125C141 23.6096 140.107 25.8139 138.519 27.4416C136.921 29.0794 134.749 30 132.483 30H118.5V0H132.483C134.749 0 136.919 0.920623 138.518 2.55715C140.107 4.18488 141 6.3891 141 8.68752V12.5998ZM123.753 12.3223H133.837L135.748 10.3718V7.30721L133.837 5.35795H123.753V12.3223ZM123.753 24.6433H133.837L135.748 22.6928V19.6295L133.837 17.679H123.753V24.6433Z" fill="black"/>
<path d="M196.5 49.5L191.853 45H181.5V66H186V49.5H196.5Z" fill="black"/>
</svg>
